<svg xmlns="http://www.w3.org/2000/svg" xmlns:xlink="http://www.w3.org/1999/xlink" width="140" zoomAndPan="magnify" viewBox="0 0 104.88 40.499999" height="54" preserveAspectRatio="xMidYMid meet" version="1.0"><defs><g/><clipPath id="cb1ccf9329"><path d="M 16 7 L 38.957031 7 L 38.957031 39.699219 L 16 39.699219 Z M 16 7 " clip-rule="nonzero"/></clipPath><clipPath id="276ca1ad2e"><path d="M 2.582031 0.230469 L 26 0.230469 L 26 33 L 2.582031 33 Z M 2.582031 0.230469 " clip-rule="nonzero"/></clipPath></defs><g clip-path="url(#cb1ccf9329)"><path fill="#ffffff" d="M 38.890625 39.617188 C 37.84375 37.953125 36.796875 36.289062 35.753906 34.625 L 32.605469 29.640625 L 29.445312 24.660156 L 26.484375 19.996094 L 30.300781 14.394531 L 31.304688 12.921875 C 31.640625 12.429688 31.972656 11.9375 32.3125 11.449219 L 34.339844 8.519531 L 35.160156 7.332031 L 24.339844 7.261719 L 24.113281 7.667969 C 23.78125 8.265625 23.453125 8.867188 23.125 9.464844 L 22.878906 9.914062 L 22.636719 10.367188 L 22.148438 11.269531 L 21.183594 13.078125 L 20.691406 14.011719 C 20.503906 13.730469 20.316406 13.445312 20.128906 13.160156 L 19.554688 12.300781 L 18.972656 11.441406 L 18.394531 10.585938 L 17.804688 9.734375 C 17.410156 9.167969 17.007812 8.605469 16.601562 8.042969 C 16.574219 7.996094 16.535156 7.984375 16.488281 8.015625 C 16.4375 8.042969 16.429688 8.082031 16.457031 8.128906 C 16.753906 8.753906 17.054688 9.375 17.367188 9.992188 L 17.832031 10.917969 L 18.304688 11.839844 L 19.257812 13.675781 C 19.582031 14.285156 19.90625 14.894531 20.234375 15.5 L 20.707031 16.378906 L 21.269531 15.492188 C 21.636719 14.917969 21.996094 14.335938 22.355469 13.757812 L 23.4375 12.015625 L 23.972656 11.140625 L 24.238281 10.703125 L 24.503906 10.269531 C 24.773438 9.824219 25.039062 9.382812 25.304688 8.9375 C 25.519531 8.9375 31.988281 8.914062 32.242188 8.90625 L 31.132812 10.671875 C 30.816406 11.175781 30.496094 11.675781 30.175781 12.175781 L 29.214844 13.679688 L 25.371094 19.683594 L 25.171875 19.996094 L 25.371094 20.285156 L 28.703125 25.148438 L 32.042969 30.011719 L 33.714844 32.4375 L 35.390625 34.863281 C 36.507812 36.484375 37.628906 38.101562 38.75 39.710938 C 38.78125 39.757812 38.820312 39.765625 38.867188 39.734375 C 38.910156 39.703125 38.917969 39.667969 38.890625 39.621094 Z M 38.890625 39.617188 " fill-opacity="1" fill-rule="nonzero"/></g><g clip-path="url(#276ca1ad2e)"><path fill="#ffffff" d="M 24.128906 29.976562 L 23.664062 29.050781 L 23.191406 28.128906 L 22.238281 26.292969 C 21.914062 25.683594 21.59375 25.074219 21.265625 24.464844 L 20.792969 23.589844 L 20.226562 24.472656 C 19.859375 25.050781 19.503906 25.632812 19.140625 26.210938 L 18.058594 27.953125 L 17.523438 28.828125 L 17.257812 29.265625 L 16.992188 29.699219 C 16.726562 30.144531 16.457031 30.585938 16.195312 31.03125 C 15.980469 31.03125 9.511719 31.054688 9.253906 31.0625 L 10.363281 29.296875 C 10.679688 28.792969 11.003906 28.292969 11.320312 27.792969 L 12.28125 26.289062 L 16.125 20.285156 L 16.324219 19.972656 L 16.125 19.683594 L 12.792969 14.828125 L 9.453125 9.976562 L 7.78125 7.554688 L 6.105469 5.132812 C 4.988281 3.519531 3.871094 1.90625 2.746094 0.296875 C 2.714844 0.253906 2.679688 0.246094 2.632812 0.273438 C 2.585938 0.304688 2.578125 0.34375 2.605469 0.386719 C 3.652344 2.050781 4.699219 3.710938 5.746094 5.371094 L 7.316406 7.863281 L 8.890625 10.347656 L 12.046875 15.320312 L 15.011719 19.972656 L 11.199219 25.574219 L 10.195312 27.046875 C 9.859375 27.539062 9.527344 28.03125 9.1875 28.519531 L 7.160156 31.449219 L 6.339844 32.636719 L 17.160156 32.707031 L 17.386719 32.296875 C 17.71875 31.699219 18.046875 31.097656 18.375 30.5 L 18.621094 30.050781 L 18.867188 29.597656 L 19.351562 28.695312 L 20.3125 26.890625 L 20.804688 25.957031 L 21.367188 26.808594 L 21.941406 27.667969 L 22.523438 28.527344 L 23.105469 29.382812 L 23.691406 30.234375 C 24.085938 30.800781 24.488281 31.363281 24.894531 31.921875 C 24.921875 31.964844 24.960938 31.972656 25.003906 31.945312 C 25.046875 31.917969 25.054688 31.882812 25.035156 31.839844 C 24.742188 31.214844 24.441406 30.59375 24.128906 29.976562 Z M 24.128906 29.976562 " fill-opacity="1" fill-rule="nonzero"/></g><g fill="#ffffff" fill-opacity="1"><g transform="translate(37.926359, 27.402906)"><g><path d="M 3.078125 -2.421875 L 2.390625 0 L 2.34375 0 L 1.703125 -1.640625 L 1.625 -1.859375 C 1.570312 -1.742188 1.539062 -1.671875 1.53125 -1.640625 L 0.890625 0 L 0.84375 0 L 0.15625 -2.421875 L 0.40625 -2.421875 L 0.828125 -0.9375 L 0.90625 -0.640625 L 1.015625 -0.921875 L 1.59375 -2.421875 L 1.640625 -2.421875 L 2.234375 -0.921875 L 2.34375 -0.640625 C 2.375 -0.765625 2.398438 -0.859375 2.421875 -0.921875 L 2.828125 -2.421875 Z M 3.078125 -2.421875 "/></g></g></g><g fill="#ffffff" fill-opacity="1"><g transform="translate(41.329639, 27.402906)"><g><path d="M 0.296875 -2.421875 L 0.53125 -2.421875 L 0.53125 -1.40625 L 1.765625 -1.40625 L 1.765625 -2.421875 L 2.015625 -2.421875 L 2.015625 0 L 1.765625 0 L 1.765625 -1.171875 L 0.53125 -1.171875 L 0.53125 0 L 0.296875 0 Z M 0.296875 -2.421875 "/></g></g></g><g fill="#ffffff" fill-opacity="1"><g transform="translate(43.799589, 27.402906)"><g><path d="M 0.296875 -2.421875 L 1.671875 -2.421875 L 1.671875 -2.1875 L 0.53125 -2.1875 L 0.53125 -1.421875 L 1.671875 -1.421875 L 1.671875 -1.1875 L 0.53125 -1.1875 L 0.53125 -0.234375 L 1.671875 -0.234375 L 1.671875 0 L 0.296875 0 Z M 0.296875 -2.421875 "/></g></g></g><g fill="#ffffff" fill-opacity="1"><g transform="translate(45.770867, 27.402906)"><g><path d="M 0.984375 -2.421875 C 1.265625 -2.421875 1.472656 -2.363281 1.609375 -2.25 C 1.742188 -2.132812 1.8125 -1.976562 1.8125 -1.78125 C 1.8125 -1.632812 1.773438 -1.507812 1.703125 -1.40625 C 1.640625 -1.3125 1.539062 -1.238281 1.40625 -1.1875 C 1.28125 -1.144531 1.132812 -1.125 0.96875 -1.125 L 1.84375 0 L 1.546875 0 L 0.6875 -1.125 L 0.53125 -1.125 L 0.53125 0 L 0.296875 0 L 0.296875 -2.421875 Z M 0.96875 -1.359375 C 1.15625 -1.359375 1.300781 -1.390625 1.40625 -1.453125 C 1.507812 -1.523438 1.5625 -1.632812 1.5625 -1.78125 C 1.5625 -1.90625 1.515625 -2.003906 1.421875 -2.078125 C 1.335938 -2.148438 1.207031 -2.1875 1.03125 -2.1875 L 0.53125 -2.1875 L 0.53125 -1.359375 Z M 0.96875 -1.359375 "/></g></g></g><g fill="#ffffff" fill-opacity="1"><g transform="translate(47.934199, 27.402906)"><g><path d="M 0.296875 -2.421875 L 1.671875 -2.421875 L 1.671875 -2.1875 L 0.53125 -2.1875 L 0.53125 -1.421875 L 1.671875 -1.421875 L 1.671875 -1.1875 L 0.53125 -1.1875 L 0.53125 -0.234375 L 1.671875 -0.234375 L 1.671875 0 L 0.296875 0 Z M 0.296875 -2.421875 "/></g></g></g><g fill="#ffffff" fill-opacity="1"><g transform="translate(49.905476, 27.402906)"><g/></g></g><g fill="#ffffff" fill-opacity="1"><g transform="translate(51.007442, 27.402906)"><g><path d="M 0.953125 -2.421875 C 1.210938 -2.421875 1.421875 -2.375 1.578125 -2.28125 C 1.734375 -2.1875 1.8125 -2.019531 1.8125 -1.78125 C 1.8125 -1.53125 1.726562 -1.359375 1.5625 -1.265625 C 1.40625 -1.171875 1.191406 -1.125 0.921875 -1.125 L 0.53125 -1.125 L 0.53125 0 L 0.296875 0 L 0.296875 -2.421875 Z M 0.9375 -1.359375 C 1.070312 -1.359375 1.179688 -1.367188 1.265625 -1.390625 C 1.359375 -1.421875 1.429688 -1.460938 1.484375 -1.515625 C 1.535156 -1.578125 1.5625 -1.664062 1.5625 -1.78125 C 1.5625 -1.9375 1.507812 -2.039062 1.40625 -2.09375 C 1.300781 -2.15625 1.15625 -2.1875 0.96875 -2.1875 L 0.53125 -2.1875 L 0.53125 -1.359375 Z M 0.9375 -1.359375 "/></g></g></g><g fill="#ffffff" fill-opacity="1"><g transform="translate(53.086539, 27.402906)"><g><path d="M 0.984375 -2.421875 C 1.265625 -2.421875 1.472656 -2.363281 1.609375 -2.25 C 1.742188 -2.132812 1.8125 -1.976562 1.8125 -1.78125 C 1.8125 -1.632812 1.773438 -1.507812 1.703125 -1.40625 C 1.640625 -1.3125 1.539062 -1.238281 1.40625 -1.1875 C 1.28125 -1.144531 1.132812 -1.125 0.96875 -1.125 L 1.84375 0 L 1.546875 0 L 0.6875 -1.125 L 0.53125 -1.125 L 0.53125 0 L 0.296875 0 L 0.296875 -2.421875 Z M 0.96875 -1.359375 C 1.15625 -1.359375 1.300781 -1.390625 1.40625 -1.453125 C 1.507812 -1.523438 1.5625 -1.632812 1.5625 -1.78125 C 1.5625 -1.90625 1.515625 -2.003906 1.421875 -2.078125 C 1.335938 -2.148438 1.207031 -2.1875 1.03125 -2.1875 L 0.53125 -2.1875 L 0.53125 -1.359375 Z M 0.96875 -1.359375 "/></g></g></g><g fill="#ffffff" fill-opacity="1"><g transform="translate(55.249871, 27.402906)"><g><path d="M 0.296875 -2.421875 L 1.671875 -2.421875 L 1.671875 -2.1875 L 0.53125 -2.1875 L 0.53125 -1.421875 L 1.671875 -1.421875 L 1.671875 -1.1875 L 0.53125 -1.1875 L 0.53125 -0.234375 L 1.671875 -0.234375 L 1.671875 0 L 0.296875 0 Z M 0.296875 -2.421875 "/></g></g></g><g fill="#ffffff" fill-opacity="1"><g transform="translate(57.221149, 27.402906)"><g><path d="M 1.5 0.0625 C 1.226562 0.0625 0.992188 0.00390625 0.796875 -0.109375 C 0.597656 -0.222656 0.445312 -0.378906 0.34375 -0.578125 C 0.238281 -0.773438 0.1875 -0.988281 0.1875 -1.21875 C 0.1875 -1.457031 0.242188 -1.671875 0.359375 -1.859375 C 0.472656 -2.054688 0.628906 -2.207031 0.828125 -2.3125 C 1.023438 -2.425781 1.25 -2.484375 1.5 -2.484375 C 1.71875 -2.484375 1.914062 -2.4375 2.09375 -2.34375 C 2.269531 -2.257812 2.421875 -2.132812 2.546875 -1.96875 L 2.34375 -1.828125 C 2.238281 -1.960938 2.113281 -2.066406 1.96875 -2.140625 C 1.832031 -2.210938 1.675781 -2.25 1.5 -2.25 C 1.3125 -2.25 1.132812 -2.203125 0.96875 -2.109375 C 0.8125 -2.023438 0.679688 -1.898438 0.578125 -1.734375 C 0.484375 -1.578125 0.4375 -1.398438 0.4375 -1.203125 C 0.4375 -1.003906 0.484375 -0.828125 0.578125 -0.671875 C 0.671875 -0.515625 0.800781 -0.390625 0.96875 -0.296875 C 1.132812 -0.210938 1.316406 -0.171875 1.515625 -0.171875 C 1.679688 -0.171875 1.832031 -0.203125 1.96875 -0.265625 C 2.113281 -0.335938 2.242188 -0.4375 2.359375 -0.5625 L 2.5625 -0.421875 C 2.4375 -0.265625 2.28125 -0.144531 2.09375 -0.0625 C 1.914062 0.0195312 1.71875 0.0625 1.5 0.0625 Z M 1.5 0.0625 "/></g></g></g><g fill="#ffffff" fill-opacity="1"><g transform="translate(60.132492, 27.402906)"><g><path d="M 0.296875 -2.421875 L 0.53125 -2.421875 L 0.53125 0 L 0.296875 0 Z M 0.296875 -2.421875 "/></g></g></g><g fill="#ffffff" fill-opacity="1"><g transform="translate(61.126638, 27.402906)"><g><path d="M 0.8125 0.0625 C 0.65625 0.0625 0.515625 0.0195312 0.390625 -0.0625 C 0.273438 -0.15625 0.171875 -0.285156 0.078125 -0.453125 L 0.296875 -0.578125 C 0.359375 -0.441406 0.429688 -0.335938 0.515625 -0.265625 C 0.609375 -0.203125 0.703125 -0.171875 0.796875 -0.171875 C 0.878906 -0.171875 0.953125 -0.1875 1.015625 -0.21875 C 1.085938 -0.257812 1.144531 -0.3125 1.1875 -0.375 C 1.226562 -0.4375 1.25 -0.507812 1.25 -0.59375 C 1.25 -0.664062 1.226562 -0.734375 1.1875 -0.796875 C 1.144531 -0.859375 1.082031 -0.921875 1 -0.984375 C 0.925781 -1.054688 0.789062 -1.171875 0.59375 -1.328125 C 0.5 -1.398438 0.425781 -1.460938 0.375 -1.515625 C 0.332031 -1.566406 0.296875 -1.625 0.265625 -1.6875 C 0.242188 -1.75 0.234375 -1.828125 0.234375 -1.921875 C 0.234375 -2.023438 0.257812 -2.117188 0.3125 -2.203125 C 0.363281 -2.296875 0.4375 -2.363281 0.53125 -2.40625 C 0.625 -2.457031 0.722656 -2.484375 0.828125 -2.484375 C 0.960938 -2.484375 1.078125 -2.445312 1.171875 -2.375 C 1.273438 -2.3125 1.375 -2.21875 1.46875 -2.09375 L 1.265625 -1.9375 C 1.210938 -2 1.164062 -2.050781 1.125 -2.09375 C 1.082031 -2.132812 1.035156 -2.164062 0.984375 -2.1875 C 0.941406 -2.21875 0.882812 -2.234375 0.8125 -2.234375 C 0.75 -2.234375 0.691406 -2.21875 0.640625 -2.1875 C 0.597656 -2.164062 0.5625 -2.128906 0.53125 -2.078125 C 0.507812 -2.035156 0.5 -1.984375 0.5 -1.921875 C 0.5 -1.847656 0.519531 -1.773438 0.5625 -1.703125 C 0.601562 -1.640625 0.664062 -1.578125 0.75 -1.515625 C 0.9375 -1.390625 1.078125 -1.28125 1.171875 -1.1875 C 1.265625 -1.101562 1.34375 -1.007812 1.40625 -0.90625 C 1.46875 -0.8125 1.5 -0.707031 1.5 -0.59375 C 1.5 -0.476562 1.46875 -0.367188 1.40625 -0.265625 C 1.34375 -0.171875 1.257812 -0.09375 1.15625 -0.03125 C 1.0625 0.03125 0.945312 0.0625 0.8125 0.0625 Z M 0.8125 0.0625 "/></g></g></g><g fill="#ffffff" fill-opacity="1"><g transform="translate(62.936183, 27.402906)"><g><path d="M 0.296875 -2.421875 L 0.53125 -2.421875 L 0.53125 0 L 0.296875 0 Z M 0.296875 -2.421875 "/></g></g></g><g fill="#ffffff" fill-opacity="1"><g transform="translate(63.930329, 27.402906)"><g><path d="M 1.46875 0.0625 C 1.226562 0.0625 1.007812 0.00390625 0.8125 -0.109375 C 0.613281 -0.222656 0.457031 -0.375 0.34375 -0.5625 C 0.238281 -0.757812 0.1875 -0.972656 0.1875 -1.203125 C 0.1875 -1.441406 0.242188 -1.65625 0.359375 -1.84375 C 0.472656 -2.039062 0.625 -2.195312 0.8125 -2.3125 C 1.007812 -2.425781 1.222656 -2.484375 1.453125 -2.484375 C 1.691406 -2.484375 1.910156 -2.425781 2.109375 -2.3125 C 2.304688 -2.207031 2.460938 -2.054688 2.578125 -1.859375 C 2.691406 -1.660156 2.75 -1.445312 2.75 -1.21875 C 2.75 -0.976562 2.691406 -0.757812 2.578125 -0.5625 C 2.460938 -0.375 2.304688 -0.222656 2.109375 -0.109375 C 1.921875 0.00390625 1.707031 0.0625 1.46875 0.0625 Z M 1.46875 -0.171875 C 1.644531 -0.171875 1.8125 -0.210938 1.96875 -0.296875 C 2.132812 -0.390625 2.257812 -0.515625 2.34375 -0.671875 C 2.4375 -0.835938 2.484375 -1.019531 2.484375 -1.21875 C 2.484375 -1.414062 2.4375 -1.59375 2.34375 -1.75 C 2.25 -1.90625 2.125 -2.023438 1.96875 -2.109375 C 1.8125 -2.203125 1.644531 -2.25 1.46875 -2.25 C 1.28125 -2.25 1.109375 -2.203125 0.953125 -2.109375 C 0.796875 -2.023438 0.671875 -1.898438 0.578125 -1.734375 C 0.484375 -1.578125 0.4375 -1.398438 0.4375 -1.203125 C 0.4375 -1.003906 0.484375 -0.828125 0.578125 -0.671875 C 0.671875 -0.515625 0.796875 -0.390625 0.953125 -0.296875 C 1.109375 -0.210938 1.28125 -0.171875 1.46875 -0.171875 Z M 1.46875 -0.171875 "/></g></g></g><g fill="#ffffff" fill-opacity="1"><g transform="translate(67.02699, 27.402906)"><g><path d="M 1.953125 -2.421875 L 2.1875 -2.421875 L 2.1875 0 L 2.140625 0 L 0.53125 -1.828125 L 0.53125 0 L 0.296875 0 L 0.296875 -2.421875 L 0.34375 -2.421875 L 1.953125 -0.5625 Z M 1.953125 -2.421875 "/></g></g></g><g fill="#ffffff" fill-opacity="1"><g transform="translate(69.675521, 27.402906)"><g/></g></g><g fill="#ffffff" fill-opacity="1"><g transform="translate(70.777487, 27.402906)"><g><path d="M 0.296875 -2.421875 L 1.515625 -2.421875 L 1.515625 -2.1875 L 0.53125 -2.1875 L 0.53125 -1.421875 L 1.515625 -1.421875 L 1.515625 -1.1875 L 0.53125 -1.1875 L 0.53125 0 L 0.296875 0 Z M 0.296875 -2.421875 "/></g></g></g><g fill="#ffffff" fill-opacity="1"><g transform="translate(72.580291, 27.402906)"><g><path d="M 1.109375 0.0625 C 0.941406 0.0625 0.796875 0.0234375 0.671875 -0.046875 C 0.554688 -0.117188 0.460938 -0.222656 0.390625 -0.359375 C 0.328125 -0.492188 0.296875 -0.65625 0.296875 -0.84375 L 0.296875 -2.421875 L 0.546875 -2.421875 L 0.546875 -0.796875 C 0.546875 -0.679688 0.566406 -0.578125 0.609375 -0.484375 C 0.648438 -0.390625 0.710938 -0.3125 0.796875 -0.25 C 0.878906 -0.195312 0.984375 -0.171875 1.109375 -0.171875 C 1.234375 -0.171875 1.335938 -0.195312 1.421875 -0.25 C 1.503906 -0.3125 1.566406 -0.390625 1.609375 -0.484375 C 1.648438 -0.578125 1.671875 -0.679688 1.671875 -0.796875 L 1.671875 -2.421875 L 1.90625 -2.421875 L 1.90625 -0.84375 C 1.90625 -0.65625 1.875 -0.492188 1.8125 -0.359375 C 1.75 -0.222656 1.65625 -0.117188 1.53125 -0.046875 C 1.414062 0.0234375 1.273438 0.0625 1.109375 0.0625 Z M 1.109375 0.0625 "/></g></g></g><g fill="#ffffff" fill-opacity="1"><g transform="translate(74.955896, 27.402906)"><g><path d="M 0.296875 -2.421875 L 1.671875 -2.421875 L 1.671875 -2.1875 L 0.53125 -2.1875 L 0.53125 -1.421875 L 1.671875 -1.421875 L 1.671875 -1.1875 L 0.53125 -1.1875 L 0.53125 -0.234375 L 1.671875 -0.234375 L 1.671875 0 L 0.296875 0 Z M 0.296875 -2.421875 "/></g></g></g><g fill="#ffffff" fill-opacity="1"><g transform="translate(76.927173, 27.402906)"><g><path d="M 0.53125 -2.421875 L 0.53125 -0.234375 L 1.46875 -0.234375 L 1.46875 0 L 0.296875 0 L 0.296875 -2.421875 Z M 0.53125 -2.421875 "/></g></g></g><g fill="#ffffff" fill-opacity="1"><g transform="translate(78.652483, 27.402906)"><g><path d="M 0.8125 0.0625 C 0.65625 0.0625 0.515625 0.0195312 0.390625 -0.0625 C 0.273438 -0.15625 0.171875 -0.285156 0.078125 -0.453125 L 0.296875 -0.578125 C 0.359375 -0.441406 0.429688 -0.335938 0.515625 -0.265625 C 0.609375 -0.203125 0.703125 -0.171875 0.796875 -0.171875 C 0.878906 -0.171875 0.953125 -0.1875 1.015625 -0.21875 C 1.085938 -0.257812 1.144531 -0.3125 1.1875 -0.375 C 1.226562 -0.4375 1.25 -0.507812 1.25 -0.59375 C 1.25 -0.664062 1.226562 -0.734375 1.1875 -0.796875 C 1.144531 -0.859375 1.082031 -0.921875 1 -0.984375 C 0.925781 -1.054688 0.789062 -1.171875 0.59375 -1.328125 C 0.5 -1.398438 0.425781 -1.460938 0.375 -1.515625 C 0.332031 -1.566406 0.296875 -1.625 0.265625 -1.6875 C 0.242188 -1.75 0.234375 -1.828125 0.234375 -1.921875 C 0.234375 -2.023438 0.257812 -2.117188 0.3125 -2.203125 C 0.363281 -2.296875 0.4375 -2.363281 0.53125 -2.40625 C 0.625 -2.457031 0.722656 -2.484375 0.828125 -2.484375 C 0.960938 -2.484375 1.078125 -2.445312 1.171875 -2.375 C 1.273438 -2.3125 1.375 -2.21875 1.46875 -2.09375 L 1.265625 -1.9375 C 1.210938 -2 1.164062 -2.050781 1.125 -2.09375 C 1.082031 -2.132812 1.035156 -2.164062 0.984375 -2.1875 C 0.941406 -2.21875 0.882812 -2.234375 0.8125 -2.234375 C 0.75 -2.234375 0.691406 -2.21875 0.640625 -2.1875 C 0.597656 -2.164062 0.5625 -2.128906 0.53125 -2.078125 C 0.507812 -2.035156 0.5 -1.984375 0.5 -1.921875 C 0.5 -1.847656 0.519531 -1.773438 0.5625 -1.703125 C 0.601562 -1.640625 0.664062 -1.578125 0.75 -1.515625 C 0.9375 -1.390625 1.078125 -1.28125 1.171875 -1.1875 C 1.265625 -1.101562 1.34375 -1.007812 1.40625 -0.90625 C 1.46875 -0.8125 1.5 -0.707031 1.5 -0.59375 C 1.5 -0.476562 1.46875 -0.367188 1.40625 -0.265625 C 1.34375 -0.171875 1.257812 -0.09375 1.15625 -0.03125 C 1.0625 0.03125 0.945312 0.0625 0.8125 0.0625 Z M 0.8125 0.0625 "/></g></g></g><g fill="#ffffff" fill-opacity="1"><g transform="translate(80.462027, 27.402906)"><g/></g></g><g fill="#ffffff" fill-opacity="1"><g transform="translate(81.563993, 27.402906)"><g><path d="M 0.296875 -2.421875 L 1.671875 -2.421875 L 1.671875 -2.1875 L 0.53125 -2.1875 L 0.53125 -1.421875 L 1.671875 -1.421875 L 1.671875 -1.1875 L 0.53125 -1.1875 L 0.53125 -0.234375 L 1.671875 -0.234375 L 1.671875 0 L 0.296875 0 Z M 0.296875 -2.421875 "/></g></g></g><g fill="#ffffff" fill-opacity="1"><g transform="translate(83.535271, 27.402906)"><g><path d="M 0.890625 -1.25 L 0.171875 -2.421875 L 0.453125 -2.421875 L 1.03125 -1.484375 L 1.609375 -2.421875 L 1.890625 -2.421875 L 1.171875 -1.25 L 1.9375 0 L 1.65625 0 L 1.03125 -1.015625 L 0.390625 0 L 0.109375 0 Z M 0.890625 -1.25 "/></g></g></g><g fill="#ffffff" fill-opacity="1"><g transform="translate(85.755883, 27.402906)"><g><path d="M 0.296875 -2.421875 L 1.671875 -2.421875 L 1.671875 -2.1875 L 0.53125 -2.1875 L 0.53125 -1.421875 L 1.671875 -1.421875 L 1.671875 -1.1875 L 0.53125 -1.1875 L 0.53125 -0.234375 L 1.671875 -0.234375 L 1.671875 0 L 0.296875 0 Z M 0.296875 -2.421875 "/></g></g></g><g fill="#ffffff" fill-opacity="1"><g transform="translate(87.727161, 27.402906)"><g><path d="M 1.5 0.0625 C 1.226562 0.0625 0.992188 0.00390625 0.796875 -0.109375 C 0.597656 -0.222656 0.445312 -0.378906 0.34375 -0.578125 C 0.238281 -0.773438 0.1875 -0.988281 0.1875 -1.21875 C 0.1875 -1.457031 0.242188 -1.671875 0.359375 -1.859375 C 0.472656 -2.054688 0.628906 -2.207031 0.828125 -2.3125 C 1.023438 -2.425781 1.25 -2.484375 1.5 -2.484375 C 1.71875 -2.484375 1.914062 -2.4375 2.09375 -2.34375 C 2.269531 -2.257812 2.421875 -2.132812 2.546875 -1.96875 L 2.34375 -1.828125 C 2.238281 -1.960938 2.113281 -2.066406 1.96875 -2.140625 C 1.832031 -2.210938 1.675781 -2.25 1.5 -2.25 C 1.3125 -2.25 1.132812 -2.203125 0.96875 -2.109375 C 0.8125 -2.023438 0.679688 -1.898438 0.578125 -1.734375 C 0.484375 -1.578125 0.4375 -1.398438 0.4375 -1.203125 C 0.4375 -1.003906 0.484375 -0.828125 0.578125 -0.671875 C 0.671875 -0.515625 0.800781 -0.390625 0.96875 -0.296875 C 1.132812 -0.210938 1.316406 -0.171875 1.515625 -0.171875 C 1.679688 -0.171875 1.832031 -0.203125 1.96875 -0.265625 C 2.113281 -0.335938 2.242188 -0.4375 2.359375 -0.5625 L 2.5625 -0.421875 C 2.4375 -0.265625 2.28125 -0.144531 2.09375 -0.0625 C 1.914062 0.0195312 1.71875 0.0625 1.5 0.0625 Z M 1.5 0.0625 "/></g></g></g><g fill="#ffffff" fill-opacity="1"><g transform="translate(90.638504, 27.402906)"><g><path d="M 1.109375 0.0625 C 0.941406 0.0625 0.796875 0.0234375 0.671875 -0.046875 C 0.554688 -0.117188 0.460938 -0.222656 0.390625 -0.359375 C 0.328125 -0.492188 0.296875 -0.65625 0.296875 -0.84375 L 0.296875 -2.421875 L 0.546875 -2.421875 L 0.546875 -0.796875 C 0.546875 -0.679688 0.566406 -0.578125 0.609375 -0.484375 C 0.648438 -0.390625 0.710938 -0.3125 0.796875 -0.25 C 0.878906 -0.195312 0.984375 -0.171875 1.109375 -0.171875 C 1.234375 -0.171875 1.335938 -0.195312 1.421875 -0.25 C 1.503906 -0.3125 1.566406 -0.390625 1.609375 -0.484375 C 1.648438 -0.578125 1.671875 -0.679688 1.671875 -0.796875 L 1.671875 -2.421875 L 1.90625 -2.421875 L 1.90625 -0.84375 C 1.90625 -0.65625 1.875 -0.492188 1.8125 -0.359375 C 1.75 -0.222656 1.65625 -0.117188 1.53125 -0.046875 C 1.414062 0.0234375 1.273438 0.0625 1.109375 0.0625 Z M 1.109375 0.0625 "/></g></g></g><g fill="#ffffff" fill-opacity="1"><g transform="translate(93.014109, 27.402906)"><g><path d="M 0.59375 -2.1875 L 0.046875 -2.1875 L 0.046875 -2.421875 L 1.390625 -2.421875 L 1.390625 -2.1875 L 0.84375 -2.1875 L 0.84375 0 L 0.59375 0 Z M 0.59375 -2.1875 "/></g></g></g><g fill="#ffffff" fill-opacity="1"><g transform="translate(94.618118, 27.402906)"><g><path d="M 0.296875 -2.421875 L 0.53125 -2.421875 L 0.53125 0 L 0.296875 0 Z M 0.296875 -2.421875 "/></g></g></g><g fill="#ffffff" fill-opacity="1"><g transform="translate(95.612264, 27.402906)"><g><path d="M 1.46875 0.0625 C 1.226562 0.0625 1.007812 0.00390625 0.8125 -0.109375 C 0.613281 -0.222656 0.457031 -0.375 0.34375 -0.5625 C 0.238281 -0.757812 0.1875 -0.972656 0.1875 -1.203125 C 0.1875 -1.441406 0.242188 -1.65625 0.359375 -1.84375 C 0.472656 -2.039062 0.625 -2.195312 0.8125 -2.3125 C 1.007812 -2.425781 1.222656 -2.484375 1.453125 -2.484375 C 1.691406 -2.484375 1.910156 -2.425781 2.109375 -2.3125 C 2.304688 -2.207031 2.460938 -2.054688 2.578125 -1.859375 C 2.691406 -1.660156 2.75 -1.445312 2.75 -1.21875 C 2.75 -0.976562 2.691406 -0.757812 2.578125 -0.5625 C 2.460938 -0.375 2.304688 -0.222656 2.109375 -0.109375 C 1.921875 0.00390625 1.707031 0.0625 1.46875 0.0625 Z M 1.46875 -0.171875 C 1.644531 -0.171875 1.8125 -0.210938 1.96875 -0.296875 C 2.132812 -0.390625 2.257812 -0.515625 2.34375 -0.671875 C 2.4375 -0.835938 2.484375 -1.019531 2.484375 -1.21875 C 2.484375 -1.414062 2.4375 -1.59375 2.34375 -1.75 C 2.25 -1.90625 2.125 -2.023438 1.96875 -2.109375 C 1.8125 -2.203125 1.644531 -2.25 1.46875 -2.25 C 1.28125 -2.25 1.109375 -2.203125 0.953125 -2.109375 C 0.796875 -2.023438 0.671875 -1.898438 0.578125 -1.734375 C 0.484375 -1.578125 0.4375 -1.398438 0.4375 -1.203125 C 0.4375 -1.003906 0.484375 -0.828125 0.578125 -0.671875 C 0.671875 -0.515625 0.796875 -0.390625 0.953125 -0.296875 C 1.109375 -0.210938 1.28125 -0.171875 1.46875 -0.171875 Z M 1.46875 -0.171875 "/></g></g></g><g fill="#ffffff" fill-opacity="1"><g transform="translate(98.708925, 27.402906)"><g><path d="M 1.953125 -2.421875 L 2.1875 -2.421875 L 2.1875 0 L 2.140625 0 L 0.53125 -1.828125 L 0.53125 0 L 0.296875 0 L 0.296875 -2.421875 L 0.34375 -2.421875 L 1.953125 -0.5625 Z M 1.953125 -2.421875 "/></g></g></g><g fill="#ffffff" fill-opacity="1"><g transform="translate(39.770748, 17.970219)"><g><path d="M 1.796875 -2.53125 L 0.234375 -4.90625 L 1.296875 -4.90625 L 2.328125 -3.328125 L 3.359375 -4.90625 L 4.40625 -4.90625 L 2.84375 -2.53125 L 4.5 0 L 3.453125 0 L 2.328125 -1.734375 L 1.1875 0 L 0.140625 0 Z M 1.796875 -2.53125 "/></g></g></g><g fill="#ffffff" fill-opacity="1"><g transform="translate(49.88316, 17.970219)"><g><path d="M 0.5625 -4.90625 L 3.234375 -4.90625 L 3.234375 -4 L 1.5 -4 L 1.5 -3.09375 L 3.234375 -3.09375 L 3.234375 -2.21875 L 1.5 -2.21875 L 1.5 -0.921875 L 3.234375 -0.921875 L 3.234375 0 L 0.5625 0 Z M 0.5625 -4.90625 "/></g></g></g><g fill="#ffffff" fill-opacity="1"><g transform="translate(58.895496, 17.970219)"><g><path d="M 2.921875 0.125 C 2.410156 0.125 1.957031 0.015625 1.5625 -0.203125 C 1.164062 -0.429688 0.859375 -0.738281 0.640625 -1.125 C 0.429688 -1.519531 0.328125 -1.960938 0.328125 -2.453125 C 0.328125 -2.953125 0.441406 -3.398438 0.671875 -3.796875 C 0.910156 -4.191406 1.226562 -4.492188 1.625 -4.703125 C 2.019531 -4.921875 2.453125 -5.03125 2.921875 -5.03125 C 3.328125 -5.03125 3.710938 -4.941406 4.078125 -4.765625 C 4.453125 -4.597656 4.773438 -4.359375 5.046875 -4.046875 L 4.390625 -3.40625 C 4.160156 -3.644531 3.925781 -3.820312 3.6875 -3.9375 C 3.445312 -4.0625 3.1875 -4.125 2.90625 -4.125 C 2.601562 -4.125 2.320312 -4.050781 2.0625 -3.90625 C 1.8125 -3.757812 1.609375 -3.554688 1.453125 -3.296875 C 1.304688 -3.046875 1.234375 -2.765625 1.234375 -2.453125 C 1.234375 -2.117188 1.304688 -1.820312 1.453125 -1.5625 C 1.597656 -1.3125 1.796875 -1.113281 2.046875 -0.96875 C 2.304688 -0.832031 2.597656 -0.765625 2.921875 -0.765625 C 3.210938 -0.765625 3.472656 -0.820312 3.703125 -0.9375 C 3.929688 -1.050781 4.164062 -1.234375 4.40625 -1.484375 L 5.046875 -0.8125 C 4.816406 -0.59375 4.597656 -0.414062 4.390625 -0.28125 C 4.179688 -0.144531 3.957031 -0.046875 3.71875 0.015625 C 3.476562 0.0859375 3.210938 0.125 2.921875 0.125 Z M 2.921875 0.125 "/></g></g></g><g fill="#ffffff" fill-opacity="1"><g transform="translate(69.691176, 17.970219)"><g><path d="M 0.953125 -3.984375 L 0.078125 -3.984375 L 0.078125 -4.90625 L 2.78125 -4.90625 L 2.78125 -3.984375 L 1.890625 -3.984375 L 1.890625 0 L 0.953125 0 Z M 0.953125 -3.984375 "/></g></g></g><g fill="#ffffff" fill-opacity="1"><g transform="translate(78.027074, 17.970219)"><g><path d="M 0.5625 -4.90625 L 1.5 -4.90625 L 1.5 0 L 0.5625 0 Z M 0.5625 -4.90625 "/></g></g></g><g fill="#ffffff" fill-opacity="1"><g transform="translate(85.549877, 17.970219)"><g><path d="M 0.1875 -4.90625 L 1.140625 -4.90625 L 2.375 -1.421875 L 3.625 -4.90625 L 4.59375 -4.90625 L 2.8125 0 L 1.921875 0 Z M 0.1875 -4.90625 "/></g></g></g><g fill="#ffffff" fill-opacity="1"><g transform="translate(95.798936, 17.970219)"><g><path d="M 0.5625 -4.90625 L 3.234375 -4.90625 L 3.234375 -4 L 1.5 -4 L 1.5 -3.09375 L 3.234375 -3.09375 L 3.234375 -2.21875 L 1.5 -2.21875 L 1.5 -0.921875 L 3.234375 -0.921875 L 3.234375 0 L 0.5625 0 Z M 0.5625 -4.90625 "/></g></g></g></svg>